HIERARCHY
ROOT Root
{
  OFFSET 0.0 0.0 0.0
  CHANNELS 6 Xposition Yposition Zposition Zrotation Yrotation Xrotation
  JOINT Hips
  {
    OFFSET 0.0 100.0 0.0
    CHANNELS 6 Xposition Yposition Zposition Zrotation Yrotation Xrotation
    JOINT Spine1
    {
      OFFSET 5.003913 -0.037094 -0.013727
      CHANNELS 3 Zrotation Yrotation Xrotation
      JOINT Spine2
      {
        OFFSET 7.125363 -1e-06 0.0
        CHANNELS 3 Zrotation Yrotation Xrotation
        JOINT Chest
        {
          OFFSET 7.594027 1e-06 0.0
          CHANNELS 3 Zrotation Yrotation Xrotation
          JOINT Neck1
          {
            OFFSET 26.313086 -0.460272 -0.181672
            CHANNELS 3 Zrotation Yrotation Xrotation
            JOINT Neck2
            {
              OFFSET 8.045911 0.0 0.0
              CHANNELS 3 Zrotation Yrotation Xrotation
              JOINT Head
              {
                OFFSET 6.432774 0.0 0.0
                CHANNELS 3 Zrotation Yrotation Xrotation
                JOINT HeadEnd
                {
                  OFFSET 16.169773 0.06451 0.00362
                  CHANNELS 3 Zrotation Yrotation Xrotation
                }
                JOINT Jaw
                {
                  OFFSET 0.108741 3.12938 0.002639
                  CHANNELS 3 Zrotation Yrotation Xrotation
                }
                JOINT LeftEye
                {
                  OFFSET 4.45173 8.166359 3.206392
                  CHANNELS 3 Zrotation Yrotation Xrotation
                }
                JOINT RightEye
                {
                  OFFSET 4.436895 8.135758 -3.222429
                  CHANNELS 3 Zrotation Yrotation Xrotation
                }
              }
            }
          }
          JOINT LeftShoulder
          {
            OFFSET 23.218927 5.195579 1.621656
            CHANNELS 3 Zrotation Yrotation Xrotation
            JOINT LeftArm
            {
              OFFSET 15.902118 2e-06 -2e-06
              CHANNELS 3 Zrotation Yrotation Xrotation
              JOINT LeftForeArm
              {
                OFFSET 28.739307 0.0 -1e-06
                CHANNELS 3 Zrotation Yrotation Xrotation
                JOINT LeftHand
                {
                  OFFSET 27.093981 -4e-06 0.0
                  CHANNELS 3 Zrotation Yrotation Xrotation
                  JOINT LeftHandThumb1
                  {
                    OFFSET 2.276781 3.380274 0.83384
                    CHANNELS 3 Zrotation Yrotation Xrotation
                    JOINT LeftHandThumb2
                    {
                      OFFSET 4.705309 -1e-06 -1e-06
                      CHANNELS 3 Zrotation Yrotation Xrotation
                      JOINT LeftHandThumb3
                      {
                        OFFSET 2.798515 0.0 3e-06
                        CHANNELS 3 Zrotation Yrotation Xrotation
                        JOINT LeftHandThumbEnd
                        {
                          OFFSET 3.180793 4e-06 -4e-06
                          CHANNELS 3 Zrotation Yrotation Xrotation
                        }
                      }
                    }
                  }
                  JOINT LeftHandIndex1
                  {
                    OFFSET 3.247786 2.352677 0.137192
                    CHANNELS 3 Zrotation Yrotation Xrotation
                    JOINT LeftHandIndex2
                    {
                      OFFSET 6.367095 1e-06 0.0
                      CHANNELS 3 Zrotation Yrotation Xrotation
                      JOINT LeftHandIndex3
                      {
                        OFFSET 3.662364 0.0 0.0
                        CHANNELS 3 Zrotation Yrotation Xrotation
                        JOINT LeftHandIndex4
                        {
                          OFFSET 2.329242 4e-06 -4e-06
                          CHANNELS 3 Zrotation Yrotation Xrotation
                          JOINT LeftHandIndexEnd
                          {
                            OFFSET 2.767823 1e-06 0.0
                            CHANNELS 3 Zrotation Yrotation Xrotation
                          }
                        }
                      }
                    }
                  }
                  JOINT LeftHandMiddle1
                  {
                    OFFSET 3.163612 0.945023 -0.406112
                    CHANNELS 3 Zrotation Yrotation Xrotation
                    JOINT LeftHandMiddle2
                    {
                      OFFSET 6.276789 3e-06 0.0
                      CHANNELS 3 Zrotation Yrotation Xrotation
                      JOINT LeftHandMiddle3
                      {
                        OFFSET 4.35652 -1e-06 4e-06
                        CHANNELS 3 Zrotation Yrotation Xrotation
                        JOINT LeftHandMiddle4
                        {
                          OFFSET 2.996877 0.0 8e-06
                          CHANNELS 3 Zrotation Yrotation Xrotation
                          JOINT LeftHandMiddleEnd
                          {
                            OFFSET 2.323256 3e-06 -4e-06
                            CHANNELS 3 Zrotation Yrotation Xrotation
                          }
                        }
                      }
                    }
                  }
                  JOINT LeftHandRing1
                  {
                    OFFSET 2.882606 -0.309162 0.107445
                    CHANNELS 3 Zrotation Yrotation Xrotation
                    JOINT LeftHandRing2
                    {
                      OFFSET 6.033198 0.0 4e-06
                      CHANNELS 3 Zrotation Yrotation Xrotation
                      JOINT LeftHandRing3
                      {
                        OFFSET 4.350578 3e-06 0.0
                        CHANNELS 3 Zrotation Yrotation Xrotation
                        JOINT LeftHandRing4
                        {
                          OFFSET 2.651321 2e-06 -7e-06
                          CHANNELS 3 Zrotation Yrotation Xrotation
                          JOINT LeftHandRingEnd
                          {
                            OFFSET 1.937663 1e-06 -4e-06
                            CHANNELS 3 Zrotation Yrotation Xrotation
                          }
                        }
                      }
                    }
                  }
                  JOINT LeftHandPinky1
                  {
                    OFFSET 2.865315 -1.525436 0.575687
                    CHANNELS 3 Zrotation Yrotation Xrotation
                    JOINT LeftHandPinky2
                    {
                      OFFSET 5.54936 1e-06 -8e-06
                      CHANNELS 3 Zrotation Yrotation Xrotation
                      JOINT LeftHandPinky3
                      {
                        OFFSET 3.070974 0.0 -4e-06
                        CHANNELS 3 Zrotation Yrotation Xrotation
                        JOINT LeftHandPinky4
                        {
                          OFFSET 1.549672 1e-06 0.0
                          CHANNELS 3 Zrotation Yrotation Xrotation
                          JOINT LeftHandPinkyEnd
                          {
                            OFFSET 1.952123 0.0 0.0
                            CHANNELS 3 Zrotation Yrotation Xrotation
                          }
                        }
                      }
                    }
                  }
                }
              }
            }
          }
          JOINT RightShoulder
          {
            OFFSET 23.161716 5.296122 -1.380114
            CHANNELS 3 Zrotation Yrotation Xrotation
            JOINT RightArm
            {
              OFFSET -16.027195 -2e-06 1.1e-05
              CHANNELS 3 Zrotation Yrotation Xrotation
              JOINT RightForeArm
              {
                OFFSET -28.736639 4e-06 2e-06
                CHANNELS 3 Zrotation Yrotation Xrotation
                JOINT RightHand
                {
                  OFFSET -27.133619 6e-06 0.0
                  CHANNELS 3 Zrotation Yrotation Xrotation
                  JOINT RightHandThumb1
                  {
                    OFFSET -2.274328 -3.351035 -0.83067
                    CHANNELS 3 Zrotation Yrotation Xrotation
                    JOINT RightHandThumb2
                    {
                      OFFSET -4.703594 -3e-06 2e-06
                      CHANNELS 3 Zrotation Yrotation Xrotation
                      JOINT RightHandThumb3
                      {
                        OFFSET -2.794935 -4e-06 -3e-06
                        CHANNELS 3 Zrotation Yrotation Xrotation
                        JOINT RightHandThumbEnd
                        {
                          OFFSET -3.183852 4e-06 1e-06
                          CHANNELS 3 Zrotation Yrotation Xrotation
                        }
                      }
                    }
                  }
                  JOINT RightHandIndex1
                  {
                    OFFSET -3.253496 -2.33755 -0.127667
                    CHANNELS 3 Zrotation Yrotation Xrotation
                    JOINT RightHandIndex2
                    {
                      OFFSET -6.344434 0.0 0.0
                      CHANNELS 3 Zrotation Yrotation Xrotation
                      JOINT RightHandIndex3
                      {
                        OFFSET -3.654871 0.0 -8e-06
                        CHANNELS 3 Zrotation Yrotation Xrotation
                        JOINT RightHandIndex4
                        {
                          OFFSET -2.327586 -1e-06 0.0
                          CHANNELS 3 Zrotation Yrotation Xrotation
                          JOINT RightHandIndexEnd
                          {
                            OFFSET -2.770001 3e-06 8e-06
                            CHANNELS 3 Zrotation Yrotation Xrotation
                          }
                        }
                      }
                    }
                  }
                  JOINT RightHandMiddle1
                  {
                    OFFSET -3.168223 -0.944764 0.411762
                    CHANNELS 3 Zrotation Yrotation Xrotation
                    JOINT RightHandMiddle2
                    {
                      OFFSET -6.266691 -1e-06 -4e-06
                      CHANNELS 3 Zrotation Yrotation Xrotation
                      JOINT RightHandMiddle3
                      {
                        OFFSET -4.348901 0.0 0.0
                        CHANNELS 3 Zrotation Yrotation Xrotation
                        JOINT RightHandMiddle4
                        {
                          OFFSET -3.00024 2e-06 -4e-06
                          CHANNELS 3 Zrotation Yrotation Xrotation
                          JOINT RightHandMiddleEnd
                          {
                            OFFSET -2.321477 -4e-06 -4e-06
                            CHANNELS 3 Zrotation Yrotation Xrotation
                          }
                        }
                      }
                    }
                  }
                  JOINT RightHandRing1
                  {
                    OFFSET -2.885654 0.293261 -0.119232
                    CHANNELS 3 Zrotation Yrotation Xrotation
                    JOINT RightHandRing2
                    {
                      OFFSET -6.032835 -1e-06 -4e-06
                      CHANNELS 3 Zrotation Yrotation Xrotation
                      JOINT RightHandRing3
                      {
                        OFFSET -4.33881 0.0 -4e-06
                        CHANNELS 3 Zrotation Yrotation Xrotation
                        JOINT RightHandRing4
                        {
                          OFFSET -2.654903 -4e-06 -4e-06
                          CHANNELS 3 Zrotation Yrotation Xrotation
                          JOINT RightHandRingEnd
                          {
                            OFFSET -1.935122 0.0 4e-06
                            CHANNELS 3 Zrotation Yrotation Xrotation
                          }
                        }
                      }
                    }
                  }
                  JOINT RightHandPinky1
                  {
                    OFFSET -2.866241 1.503904 -0.60527
                    CHANNELS 3 Zrotation Yrotation Xrotation
                    JOINT RightHandPinky2
                    {
                      OFFSET -5.553177 -2e-06 0.0
                      CHANNELS 3 Zrotation Yrotation Xrotation
                      JOINT RightHandPinky3
                      {
                        OFFSET -3.062664 -1e-06 -4e-06
                        CHANNELS 3 Zrotation Yrotation Xrotation
                        JOINT RightHandPinky4
                        {
                          OFFSET -1.546529 2e-06 4e-06
                          CHANNELS 3 Zrotation Yrotation Xrotation
                          JOINT RightHandPinkyEnd
                          {
                            OFFSET -1.952341 0.0 -4e-06
                            CHANNELS 3 Zrotation Yrotation Xrotation
                          }
                        }
                      }
                    }
                  }
                }
              }
            }
          }
        }
      }
    }
    JOINT LeftLeg
    {
      OFFSET -8.443107 2.567604 10.043214
      CHANNELS 3 Zrotation Yrotation Xrotation
      JOINT LeftShin
      {
        OFFSET 43.229198 1e-06 -1e-06
        CHANNELS 3 Zrotation Yrotation Xrotation
        JOINT LeftFoot
        {
          OFFSET 42.298611 1e-06 1e-06
          CHANNELS 3 Zrotation Yrotation Xrotation
          JOINT LeftToeBase
          {
            OFFSET 14.165858 1e-06 0.0
            CHANNELS 3 Zrotation Yrotation Xrotation
            JOINT LeftToeEnd
            {
              OFFSET 6.7141 -0.234461 0.0
              CHANNELS 3 Zrotation Yrotation Xrotation
            }
          }
        }
      }
    }
    JOINT RightLeg
    {
      OFFSET -8.303923 2.592729 -10.047278
      CHANNELS 3 Zrotation Yrotation Xrotation
      JOINT RightShin
      {
        OFFSET -43.369682 0.0 1e-06
        CHANNELS 3 Zrotation Yrotation Xrotation
        JOINT RightFoot
        {
          OFFSET -42.260784 4e-06 2e-06
          CHANNELS 3 Zrotation Yrotation Xrotation
          JOINT RightToeBase
          {
            OFFSET -14.222245 -2e-06 -1e-06
            CHANNELS 3 Zrotation Yrotation Xrotation
            JOINT RightToeEnd
            {
              OFFSET -6.660062 0.232574 -2e-06
              CHANNELS 3 Zrotation Yrotation Xrotation
            }
          }
        }
      }
    }
  }
}
MOTION
Frames: 5
Frame Time: 0.03333333333333333
0.0 0.0 0.0 0.0 -0.0 0.0 4.362987 100.57843 0.53041 89.352104 0.619172 90.433662 -5.511198 0.663943 -0.301628 -12.926893 -0.559611 -0.627175 20.32729 0.738811 -2.20025 17.917992 -2.499087 2.744146 -2.575287 -0.52114 3.436974 -26.432682 -0.514631 4.213621 6e-06 -0.0 -0.0 -0.057038 0.01451 -0.122345 -0.043078 0.107337 -0.114944 -0.01957 -0.083635 -0.12164 -122.078171 -74.597351 135.37175 42.40686 -56.392635 11.78344 22.039505 -0.008694 0.020077 -4.379376 -10.806485 8.630268 17.636627 -26.322729 52.411186 -19.466665 -14.395598 29.410393 -1e-06 -8.774821 0.0 16.524517 -18.011524 5.939983 -0.609776 -1.795654 -3.889327 -4.807088 -11.046811 -2.93785 3e-06 -20.976019 -1e-06 -5.019973 -25.03356 -4.031876 8e-06 -1e-06 -2e-06 -10.634533 -5.68697 -3.565588 10.573275 -17.922951 -3.113903 1e-06 -13.821209 2e-06 -0.501779 -31.181501 -4.027012 -11.507959 -60.205719 7.521795 -13.982712 -7.150198 -2.875041 13.772731 -8.401492 -3.218246 0.347733 -34.211552 0.771655 -0.963028 -17.73337 2.621019 -1e-06 3e-06 2e-06 -17.346418 -20.095219 -4.20178 21.757557 -1.638374 3.866426 1e-06 -6.338823 -2e-06 -1.697591 -22.591747 -6.194006 -1e-06 -6e-06 -1e-06 38.944656 -75.665459 153.584427 38.316727 -57.618698 0.244432 20.171896 -0.363365 0.080612 -4.308906 -0.914155 -15.244806 22.182114 -20.375895 49.933327 -16.701813 -16.74353 28.476532 -3e-06 -12.690602 -1e-06 16.120447 -17.685299 2.737044 -0.105919 -1.513856 -4.275881 -5.039041 -5.612872 -2.953557 4e-06 -11.020524 -2e-06 -6.111299 -15.89533 -3.84047 -0.0 -1e-06 0.0 -10.283371 -5.680288 -4.341838 11.028296 -11.302406 -2.372633 -1.38427 -14.238581 -6.320122 -0.625438 -26.924191 -3.8276 -3.981086 -49.753006 -3.714624 -13.708526 -7.363476 -3.720939 18.14115 -14.052739 -3.242675 7e-06 -18.78727 -2e-06 -0.429712 -8.456043 2.555504 -1e-06 2e-06 1e-06 -15.923534 -20.094482 -5.473585 30.41921 -7.190826 1.735925 3e-06 -8.162927 0.0 -1.861903 -22.861467 -6.167941 1e-06 -3e-06 -1e-06 177.764313 -2.559941 -11.315307 11.098104 -0.023004 -0.094613 -77.286133 1.273865 -4.250815 -5.24226 1.377144 2.092517 -0.999999 -0.0 -0.0 1.858402 -1.65496 -3.688351 5.471936 0.02961 -0.229149 -75.111244 -4.734168 -6.111199 -4.665033 0.807291 1.703201 -1.000003 0.0 -0.0 
0.0 0.0 0.0 0.0 -0.0 0.0 4.328909 100.608887 0.543012 89.325989 0.603146 90.402107 -5.527021 0.661553 -0.323786 -12.92815 -0.531759 -0.563287 20.314671 0.744711 -2.201411 18.009972 -2.546514 2.728995 -2.543494 -0.514787 3.479091 -26.42041 -0.573271 4.17466 6e-06 0.0 -0.0 -0.053743 0.017636 -0.08198 -0.025869 0.107318 -0.071707 -0.007129 -0.077099 -0.084325 -121.821465 -74.643364 135.104935 42.47583 -56.486172 11.526611 22.165838 -0.040792 -0.012247 -4.450405 -10.954074 8.754908 17.636623 -26.322731 52.411194 -19.466658 -14.395597 29.410389 -1e-06 -8.77482 -1e-06 16.493359 -17.961891 5.952721 -0.609776 -1.795654 -3.889324 -4.807087 -11.046809 -2.937851 4e-06 -20.976013 -0.0 -5.019967 -25.033554 -4.031878 8e-06 1e-06 -1e-06 -10.634532 -5.686969 -3.565587 10.573272 -17.922949 -3.113899 2e-06 -13.821208 0.0 -0.501779 -31.181498 -4.027015 -11.46241 -60.175026 7.604817 -13.982712 -7.150196 -2.875042 13.772727 -8.401489 -3.218244 0.347729 -34.211536 0.771658 -0.96303 -17.733364 2.62102 -1e-06 1e-06 1e-06 -17.346413 -20.095211 -4.201779 21.757555 -1.638375 3.866426 2e-06 -6.338823 0.0 -1.697586 -22.591742 -6.194004 -2e-06 -4e-06 -3e-06 38.837563 -75.636757 153.669052 38.252464 -57.609386 0.341809 20.059498 -0.342692 0.063269 -4.168687 -0.873465 -15.09369 22.182117 -20.375898 49.933327 -16.701815 -16.743532 28.476532 -2e-06 -12.690603 -0.0 16.155577 -17.697788 2.714024 -0.105919 -1.513856 -4.275883 -5.039041 -5.612871 -2.953556 4e-06 -11.020523 -2e-06 -6.111298 -15.895332 -3.840471 -0.0 -1e-06 -0.0 -10.283371 -5.680288 -4.34184 11.028296 -11.302405 -2.372633 -1.38427 -14.238583 -6.320123 -0.62544 -26.924194 -3.8276 -3.953564 -49.88501 -3.707582 -13.708526 -7.363477 -3.72094 18.141153 -14.052739 -3.242676 4e-06 -18.78727 -3e-06 -0.429712 -8.456045 2.555504 -0.0 1e-06 1e-06 -15.923539 -20.094486 -5.473585 30.419218 -7.190822 1.735927 3e-06 -8.162927 0.0 -1.861906 -22.861471 -6.167942 1e-06 -2e-06 -1e-06 177.989944 -2.562487 -11.257687 10.620865 -0.015454 -0.042298 -77.083206 1.233129 -4.422461 -5.283805 1.408257 2.097819 -0.999999 -1e-06 -0.0 1.843603 -1.609892 -3.604877 5.460463 0.027235 -0.209723 -74.956017 -4.869127 -6.081157 -4.649484 0.786094 1.700198 -1.000002 -1e-06 0.0 
0.0 0.0 0.0 0.0 -0.0 0.0 4.283489 100.624702 0.527832 89.313194 0.56143 90.366753 -5.559398 0.658227 -0.341327 -12.947713 -0.518001 -0.537514 20.35984 0.75033 -2.170036 18.107645 -2.581233 2.743226 -2.561928 -0.506181 3.505257 -26.331139 -0.640247 4.106259 6e-06 0.0 -1e-06 -0.053641 0.018624 -0.071359 -0.034296 0.102018 -0.058828 -0.017136 -0.069814 -0.07644 -121.489067 -74.686157 134.734192 42.467606 -56.584866 11.374248 22.349895 -0.063447 -0.045353 -4.5102 -11.103411 8.570995 17.636627 -26.322729 52.41119 -19.466656 -14.395597 29.410381 -0.0 -8.774821 0.0 16.488211 -17.965916 5.966966 -0.609777 -1.795654 -3.889328 -4.80709 -11.046811 -2.937854 2e-06 -20.976015 -2e-06 -5.019973 -25.03356 -4.031882 8e-06 -0.0 -1e-06 -10.634535 -5.686971 -3.565583 10.573274 -17.922947 -3.113901 2e-06 -13.821211 0.0 -0.501782 -31.181505 -4.027015 -11.495781 -60.134243 7.648582 -13.982716 -7.150198 -2.875039 13.772731 -8.401491 -3.218241 0.347728 -34.211552 0.771658 -0.963032 -17.73337 2.621021 0.0 0.0 0.0 -17.346422 -20.095219 -4.201779 21.757559 -1.638372 3.866427 1e-06 -6.338822 0.0 -1.697592 -22.591745 -6.194005 1e-06 -4e-06 -1e-06 38.714973 -75.596634 153.750168 38.148239 -57.592388 0.43587 20.032047 -0.337807 0.041958 -4.113519 -0.744678 -15.007384 22.182119 -20.375895 49.933319 -16.701817 -16.74353 28.47653 -2e-06 -12.690604 0.0 16.190351 -17.711565 2.708247 -0.105919 -1.513856 -4.275881 -5.039042 -5.612873 -2.953557 4e-06 -11.020525 -2e-06 -6.111301 -15.895334 -3.84047 -0.0 0.0 -0.0 -10.283373 -5.680288 -4.341838 11.028296 -11.302406 -2.372633 -1.384271 -14.238583 -6.320121 -0.625439 -26.924194 -3.827602 -3.936479 -49.944267 -3.734343 -13.708529 -7.363477 -3.720938 18.141151 -14.05274 -3.242675 6e-06 -18.787271 -3e-06 -0.429712 -8.456044 2.555504 -0.0 3e-06 -0.0 -15.923539 -20.09449 -5.473584 30.419218 -7.190823 1.735928 5e-06 -8.162929 0.0 -1.861905 -22.861479 -6.167943 1e-06 -4e-06 -1e-06 178.044159 -2.578528 -11.181873 10.403589 -0.013459 -0.022453 -76.973366 1.193065 -4.555726 -5.280904 1.417553 2.102171 -0.999999 -0.0 0.0 1.791726 -1.564461 -3.524534 5.461743 0.027556 -0.202146 -74.884285 -5.033865 -6.056938 -4.601114 0.779623 1.699532 -1.000003 -0.0 0.0 
0.0 0.0 0.0 0.0 -0.0 0.0 4.195165 100.641617 0.505565 89.304672 0.497843 90.315079 -5.588315 0.654 -0.357065 -12.966978 -0.507054 -0.528971 20.40559 0.753582 -2.111812 18.212387 -2.62359 2.758554 -2.592842 -0.504124 3.51339 -26.273321 -0.67371 4.049031 6e-06 0.0 0.0 -0.055366 0.018212 -0.074609 -0.052025 0.096762 -0.061424 -0.037486 -0.065373 -0.080958 -121.1063 -74.718658 134.33606 42.483051 -56.667149 11.338918 22.536388 -0.050856 -0.058436 -4.522177 -11.205736 8.317046 17.636635 -26.322725 52.411182 -19.466663 -14.395594 29.410385 -0.0 -8.774821 -1e-06 16.457273 -17.955872 5.986001 -0.609776 -1.795653 -3.88933 -4.807089 -11.046813 -2.93785 2e-06 -20.976019 -4e-06 -5.019971 -25.033562 -4.031881 8e-06 2e-06 -1e-06 -10.634534 -5.686972 -3.565587 10.573272 -17.922955 -3.1139 1e-06 -13.821212 -0.0 -0.501776 -31.181507 -4.02702 -11.507997 -60.096348 7.654024 -13.982714 -7.150199 -2.875041 13.772728 -8.401493 -3.218241 0.347731 -34.211555 0.771655 -0.963028 -17.73337 2.621017 -0.0 -1e-06 1e-06 -17.34642 -20.095221 -4.201779 21.757557 -1.638375 3.866427 2e-06 -6.338824 -0.0 -1.697589 -22.591747 -6.194007 -1e-06 -5e-06 -2e-06 38.617832 -75.558479 153.814774 38.018185 -57.593903 0.583795 20.080921 -0.298831 0.036129 -4.074026 -0.665276 -14.990456 22.182116 -20.375891 49.933315 -16.701813 -16.74353 28.47653 -3e-06 -12.6906 -1e-06 16.206816 -17.712559 2.70641 -0.105919 -1.513856 -4.275881 -5.039042 -5.612872 -2.953556 5e-06 -11.020521 -2e-06 -6.111296 -15.89533 -3.840471 -0.0 1e-06 0.0 -10.283371 -5.680288 -4.341839 11.028294 -11.302404 -2.372633 -1.384269 -14.238579 -6.32012 -0.625436 -26.924189 -3.827601 -3.935588 -49.91798 -3.751009 -13.708524 -7.363475 -3.72094 18.141148 -14.052739 -3.242674 7e-06 -18.78727 -2e-06 -0.429713 -8.456042 2.555505 -0.0 2e-06 1e-06 -15.923536 -20.094482 -5.473585 30.419214 -7.190827 1.735926 6e-06 -8.162926 -1e-06 -1.861901 -22.861469 -6.167942 2e-06 -5e-06 -1e-06 178.084518 -2.616156 -11.164005 10.16241 -0.014215 -0.015402 -76.841248 1.154312 -4.690084 -5.276469 1.414206 2.102769 -0.999998 0.0 -0.0 1.710362 -1.512497 -3.460501 5.465279 0.027243 -0.202457 -74.820099 -5.154315 -6.023871 -4.583519 0.773446 1.69768 -1.000002 0.0 0.0 
0.0 0.0 0.0 0.0 -0.0 0.0 4.107703 100.666466 0.501955 89.293831 0.40671 90.27137 -5.610734 0.659312 -0.357939 -12.978366 -0.498925 -0.528915 20.432451 0.753772 -2.069028 18.299627 -2.664719 2.764675 -2.610682 -0.495456 3.515868 -26.275539 -0.679797 4.018266 7e-06 0.0 -0.0 -0.05294 0.017645 -0.075558 -0.057659 0.094904 -0.062273 -0.047233 -0.064492 -0.082765 -120.629623 -74.757477 133.869186 42.619278 -56.733738 11.331347 22.652622 -0.030805 -0.056502 -4.505196 -11.271241 8.180292 17.636637 -26.322729 52.411179 -19.46666 -14.395598 29.410381 -1e-06 -8.774821 -1e-06 16.405699 -17.927612 6.012181 -0.609776 -1.795653 -3.889328 -4.807087 -11.046809 -2.93785 6e-06 -20.976017 -1e-06 -5.019969 -25.033554 -4.031877 8e-06 -1e-06 -1e-06 -10.634534 -5.686969 -3.565589 10.573277 -17.922951 -3.1139 3e-06 -13.821209 1e-06 -0.501777 -31.181501 -4.027012 -11.489612 -60.057758 7.659615 -13.982712 -7.150196 -2.87504 13.77273 -8.401493 -3.218241 0.347737 -34.211552 0.771656 -0.963028 -17.73337 2.621023 -1e-06 1e-06 0.0 -17.346416 -20.095217 -4.201783 21.757557 -1.638376 3.866426 2e-06 -6.338823 -0.0 -1.69759 -22.591743 -6.194004 -2e-06 -6e-06 -2e-06 38.581875 -75.535072 153.835983 37.892326 -57.611767 0.780502 20.170713 -0.236395 0.044644 -4.000098 -0.623017 -15.018088 22.182114 -20.375887 49.933308 -16.701815 -16.743528 28.476526 -3e-06 -12.6906 -2e-06 16.2069 -17.713326 2.710987 -0.105918 -1.513856 -4.275881 -5.03904 -5.61287 -2.953557 4e-06 -11.020523 -2e-06 -6.111296 -15.89533 -3.84047 0.0 -1e-06 0.0 -10.283369 -5.680288 -4.341838 11.028294 -11.302404 -2.372633 -1.384268 -14.238583 -6.32012 -0.625436 -26.924191 -3.827601 -3.934893 -49.888016 -3.757164 -13.708525 -7.363476 -3.720938 18.141148 -14.052739 -3.242674 8e-06 -18.787266 -4e-06 -0.429712 -8.456041 2.555503 -1e-06 3e-06 1e-06 -15.923532 -20.094482 -5.473584 30.41921 -7.190825 1.735926 6e-06 -8.162927 -1e-06 -1.861902 -22.861469 -6.167939 1e-06 -4e-06 -1e-06 178.226944 -2.649776 -11.193978 9.788165 -0.018272 -0.00984 -76.692917 1.15291 -4.825955 -5.255764 1.405312 2.100566 -1.0 -0.0 0.0 1.600229 -1.447623 -3.419187 5.460253 0.026797 -0.201902 -74.724983 -5.240932 -5.99509 -4.558608 0.768995 1.696957 -1.000002 0.0 0.0 
